<svg xmlns="http://www.w3.org/2000/svg" viewBox="0 0 32 32" id="bookmark"><defs><linearGradient id="a" x1="7.965" x2="24.173" y1="30.287" y2="2.214" gradientUnits="userSpaceOnUse"><stop offset="0" stop-color="#4c46c8"></stop><stop offset="1" stop-color="#87bfff"></stop></linearGradient></defs><path fill="url(#a)" d="M23 2H9a3 3 0 0 0-3 3v23a1.975 1.975 0 0 0 1.181 1.824 2.014 2.014 0 0 0 .826.18 1.978 1.978 0 0 0 1.321-.51l6.007-5.339a1 1 0 0 1 1.33 0l6.006 5.339A2 2 0 0 0 26 28V5a3 3 0 0 0-3-3Zm1 26-6.007-5.339a3 3 0 0 0-3.986 0L8 28V5a1 1 0 0 1 1-1h14a1 1 0 0 1 1 1l.007 23Z" data-name="Layer 2"></path></svg>